Coordinates
version=1
nRows=17
nColumns=40
inDegrees=yes

Units are S.I. units (second, meters, Newtons, ...)
If the header above contains a line with 'inDegrees', this indicates whether rotational values are in degrees (yes) or radians (no).

endheader
time	pelvis_tilt	pelvis_list	pelvis_rotation	pelvis_tx	pelvis_ty	pelvis_tz	hip_flexion_r	hip_adduction_r	hip_rotation_r	knee_angle_r	knee_angle_r_beta	ankle_angle_r	subtalar_angle_r	mtp_angle_r	hip_flexion_l	hip_adduction_l	hip_rotation_l	knee_angle_l	knee_angle_l_beta	ankle_angle_l	subtalar_angle_l	mtp_angle_l	lumbar_extension	lumbar_bending	lumbar_rotation	arm_flex_r	arm_add_r	arm_rot_r	elbow_flex_r	pro_sup_r	wrist_flex_r	wrist_dev_r	arm_flex_l	arm_add_l	arm_rot_l	elbow_flex_l	pro_sup_l	wrist_flex_l	wrist_dev_l
      2.17000000	     -1.87986217	      7.67478814	    -89.86352235	      0.13795049	      0.93303055	      0.21592909	     25.31575062	     -1.56896102	     -2.90811586	     57.97067827	      1.01177921	      2.46245462	      0.00000000	      0.00000000	     16.90672196	      2.65735996	     -2.39808046	     14.82330738	      0.25871552	      1.85478056	      0.00000000	      0.00000000	      2.14108412	      0.97148393	     -5.35647350	      0.00000000	      0.00000000	      0.00000000	      0.00000000	      0.00000000	      0.00000000	      0.00000000	      0.00000000	      0.00000000	      0.00000000	      0.00000000	      0.00000000	      0.00000000	      0.00000000
      2.18000000	     -1.97691655	      7.76226915	    -89.85855322	      0.13827147	      0.93339223	      0.22198223	     26.33159700	     -1.42566115	     -2.88542265	     56.74096605	      0.99031668	      3.00337815	      0.00000000	      0.00000000	     16.44348410	      2.59274906	     -2.38225223	     14.57859179	      0.25444443	      2.13384756	      0.00000000	      0.00000000	      2.11445775	      1.09196669	     -5.45605367	      0.00000000	      0.00000000	      0.00000000	      0.00000000	      0.00000000	      0.00000000	      0.00000000	      0.00000000	      0.00000000	      0.00000000	      0.00000000	      0.00000000	      0.00000000	      0.00000000
      2.19000000	     -2.08096921	      7.74660655	    -89.85393154	      0.13855401	      0.93386371	      0.22806365	     27.12295359	     -1.25361408	     -2.87096518	     55.24842438	      0.96426691	      3.42637176	      0.00000000	      0.00000000	     15.85089392	      2.51893532	     -2.32551721	     14.30127269	      0.24960430	      2.30803510	      0.00000000	      0.00000000	      1.98300595	      1.21955574	     -5.54501968	      0.00000000	      0.00000000	      0.00000000	      0.00000000	      0.00000000	      0.00000000	      0.00000000	      0.00000000	      0.00000000	      0.00000000	      0.00000000	      0.00000000	      0.00000000	      0.00000000
      2.20000000	     -2.09335207	      7.85057404	    -89.84562368	      0.13884484	      0.93401761	      0.23403969	     28.01962708	     -1.18303530	     -2.85661483	     53.66900126	      0.93670078	      3.73315477	      0.00000000	     -0.00000000	     15.43922794	      2.53242233	     -2.37531269	     14.11078315	      0.24627963	      2.60134871	     -0.00000000	     -0.00000000	      1.97573433	      1.23848428	     -5.64686893	      0.00000000	      0.00000000	     -0.00000000	      0.00000000	      0.00000000	     -0.00000000	     -0.00000000	      0.00000000	     -0.00000000	     -0.00000000	      0.00000000	      0.00000000	      0.00000000	     -0.00000000
      2.21000000	     -2.28000709	      7.70554682	    -89.83810099	      0.13902433	      0.93463532	      0.24019880	     28.44955691	     -0.87522742	     -2.87965602	     51.70755811	      0.90246714	      3.82623136	      0.00000000	      0.00000000	     14.65831997	      2.36891708	     -2.28524718	     13.73800248	      0.23977338	      2.75796717	      0.00000000	      0.00000000	      1.69462144	      1.46784267	     -5.70586252	      0.00000000	      0.00000000	      0.00000000	      0.00000000	      0.00000000	      0.00000000	      0.00000000	      0.00000000	      0.00000000	      0.00000000	      0.00000000	      0.00000000	      0.00000000	      0.00000000
      2.22000000	     -2.35400211	      7.72220539	    -89.82887731	      0.13923263	      0.93481671	      0.24623218	     29.04658374	     -0.69590875	     -2.88859306	     49.71470581	      0.86768530	      3.84222519	     -0.00000000	      0.00000000	     14.13561929	      2.31874438	     -2.23977523	     13.51488791	      0.23587929	      3.00054807	      0.00000000	     -0.00000000	      1.60207612	      1.55800567	     -5.77660740	     -0.00000000	      0.00000000	     -0.00000000	      0.00000000	      0.00000000	     -0.00000000	      0.00000000	     -0.00000000	     -0.00000000	     -0.00000000	      0.00000000	      0.00000000	     -0.00000000	      0.00000000
      2.23000000	     -2.35391706	      7.85048041	    -89.82184614	      0.13943435	      0.93474427	      0.25213881	     29.73282249	     -0.56866041	     -2.84110484	     47.63933568	      0.83146326	      3.82481584	      0.00000000	     -0.00000000	     13.75556254	      2.34401975	     -2.24714370	     13.31385480	      0.23237060	      3.33938922	      0.00000000	     -0.00000000	      1.62306203	      1.57147893	     -5.82876643	      0.00000000	     -0.00000000	     -0.00000000	      0.00000000	      0.00000000	     -0.00000000	      0.00000000	     -0.00000000	      0.00000000	     -0.00000000	      0.00000000	      0.00000000	     -0.00000000	      0.00000000
      2.24000000	     -2.45492873	      7.82007543	    -89.80711258	      0.13956292	      0.93489715	      0.25817501	     30.09654458	     -0.34333890	     -2.90543340	     45.30210335	      0.79067086	      3.53135210	     -0.00000000	     -0.00000000	     13.20882689	      2.25816849	     -2.18560435	     13.14793023	      0.22947467	      3.56631018	     -0.00000000	     -0.00000000	      1.47403459	      1.68519137	     -5.88587763	     -0.00000000	      0.00000000	      0.00000000	      0.00000000	      0.00000000	     -0.00000000	     -0.00000000	      0.00000000	      0.00000000	      0.00000000	      0.00000000	      0.00000000	      0.00000000	     -0.00000000
      2.25000000	     -2.45160054	      7.85516325	    -89.79549520	      0.13972796	      0.93482244	      0.26419729	     30.51087361	     -0.20468773	     -2.89049306	     42.94595150	      0.74954825	      3.26423544	      0.00000000	      0.00000000	     12.73722644	      2.28318329	     -2.17953501	     12.97689291	      0.22648951	      3.86612208	     -0.00000000	      0.00000000	      1.39495999	      1.68821735	     -5.92588819	     -0.00000000	     -0.00000000	      0.00000000	      0.00000000	      0.00000000	      0.00000000	     -0.00000000	      0.00000000	     -0.00000000	     -0.00000000	      0.00000000	      0.00000000	     -0.00000000	      0.00000000
      2.26000000	     -2.47427428	      7.79553279	    -89.77830982	      0.13985598	      0.93481058	      0.27028536	     30.73050065	     -0.03991520	     -2.93734724	     40.45251204	      0.70602953	      2.85761293	      0.00000000	      0.00000000	     12.18042070	      2.27221703	     -2.18481514	     12.85695756	      0.22439624	      4.11738424	      0.00000000	      0.00000000	      1.21685267	      1.72451469	     -5.97567237	      0.00000000	      0.00000000	      0.00000000	      0.00000000	      0.00000000	      0.00000000	      0.00000000	      0.00000000	      0.00000000	      0.00000000	      0.00000000	      0.00000000	      0.00000000	      0.00000000
      2.27000000	     -2.44463006	      7.84659559	    -89.76167123	      0.13996464	      0.93454137	      0.27636844	     31.04614474	      0.08629361	     -2.94931521	     37.94138611	      0.66220211	      2.44267286	      0.00000000	      0.00000000	     11.74528710	      2.32138510	     -2.15027978	     12.73269822	      0.22222751	      4.43375788	      0.00000000	      0.00000000	      1.16954577	      1.68799905	     -6.00271033	      0.00000000	      0.00000000	      0.00000000	      0.00000000	      0.00000000	      0.00000000	      0.00000000	      0.00000000	      0.00000000	      0.00000000	      0.00000000	      0.00000000	      0.00000000	      0.00000000
      2.28000000	     -2.41031108	      7.79107081	    -89.73882163	      0.14008967	      0.93434771	      0.28252654	     31.16876390	      0.20911852	     -2.98614695	     35.34041004	      0.61680651	      1.98383526	      0.00000000	      0.00000000	     11.20868699	      2.36958444	     -2.17892877	     12.64886504	      0.22076434	      4.71915170	      0.00000000	      0.00000000	      0.99659410	      1.66539333	     -6.03724268	      0.00000000	      0.00000000	      0.00000000	      0.00000000	      0.00000000	      0.00000000	      0.00000000	      0.00000000	      0.00000000	      0.00000000	      0.00000000	      0.00000000	      0.00000000	      0.00000000
      2.29000000	     -2.33436398	      7.83244887	    -89.71513695	      0.14021525	      0.93392627	      0.28868805	     31.37383577	      0.29775549	     -3.01121569	     32.73662447	      0.57136188	      1.51406982	      0.00000000	      0.00000000	     10.77398589	      2.46978226	     -2.13095816	     12.56014032	      0.21921580	      5.04348845	      0.00000000	      0.00000000	      0.94479919	      1.58462116	     -6.06923726	      0.00000000	      0.00000000	      0.00000000	      0.00000000	      0.00000000	      0.00000000	      0.00000000	      0.00000000	      0.00000000	      0.00000000	      0.00000000	      0.00000000	      0.00000000	      0.00000000
      2.30000000	     -2.24127183	      7.81822430	    -89.68558410	      0.14033296	      0.93349550	      0.29494692	     31.47293083	      0.37114250	     -3.05707061	     30.11584930	      0.52562073	      1.06206323	      0.00000000	      0.00000000	     10.28860840	      2.58276022	     -2.11888601	     12.50042963	      0.21817366	      5.36163886	      0.00000000	      0.00000000	      0.83182255	      1.48665929	     -6.10015509	      0.00000000	      0.00000000	      0.00000000	      0.00000000	      0.00000000	      0.00000000	      0.00000000	      0.00000000	      0.00000000	      0.00000000	      0.00000000	      0.00000000	      0.00000000	      0.00000000
      2.31000000	     -2.07798411	      7.92551768	    -89.65328830	      0.14046119	      0.93277980	      0.30120035	     31.71248914	      0.37865616	     -3.07238194	     27.57333833	      0.48124554	      0.67202061	      0.00000000	      0.00000000	      9.93566568	      2.77954261	     -2.02806824	     12.44524215	      0.21721045	      5.71012992	      0.00000000	      0.00000000	      0.86418520	      1.30660022	     -6.12389310	      0.00000000	      0.00000000	      0.00000000	      0.00000000	      0.00000000	      0.00000000	      0.00000000	      0.00000000	      0.00000000	      0.00000000	      0.00000000	      0.00000000	      0.00000000	      0.00000000
      2.32000000	     -1.97423705	      7.86714434	    -89.60657127	      0.14058501	      0.93226334	      0.30762325	     31.67831955	      0.43814969	     -3.19975767	     24.94187820	      0.43531790	      0.20309919	     -0.00000000	     -0.00000000	      9.40228974	      2.90077792	     -2.02045973	     12.41113108	      0.21661510	      6.02164341	     -0.00000000	     -0.00000000	      0.71172617	      1.20223887	     -6.14939693	      0.00000000	     -0.00000000	     -0.00000000	      0.00000000	      0.00000000	     -0.00000000	     -0.00000000	      0.00000000	      0.00000000	     -0.00000000	      0.00000000	      0.00000000	      0.00000000	      0.00000000
      2.33000000	     -1.81143983	      7.83880052	    -89.55557878	      0.14071099	      0.93160882	      0.31411178	     31.67760332	      0.45013524	     -3.28103231	     22.39682708	      0.39089837	     -0.15717698	      0.00000000	     -0.00000000	      8.89045079	      3.08882069	     -1.97928467	     12.36259012	      0.21576790	      6.34458721	      0.00000000	      0.00000000	      0.59595054	      1.03077481	     -6.18207427	      0.00000000	      0.00000000	      0.00000000	      0.00000000	      0.00000000	     -0.00000000	     -0.00000000	      0.00000000	      0.00000000	     -0.00000000	      0.00000000	      0.00000000	     -0.00000000	     -0.00000000
